# xmcd CD database file generated by OrangeCD 5.2
#
# Track frame offsets:
#	150
#	13943
#	27574
#	42422
#	60962
#	72026
#	87105
#	101016
#
# Disc length: 1544 seconds
#
# Revision: 0
# Processed by: cddbd v1.5PL3 Copyright (c) Steve Scherf et al.
# Submitted via: OrangeCD 5.2
#
DISCID=61060608
DTITLE=Paulette Tyler - How I Feel About You
DYEAR=2002
DGENRE=Country
TTITLE0=How I Feel About You
TTITLE1=This Moment With You
TTITLE2=Hold Me While I'm Hurting
TTITLE3=Neither One of Us
TTITLE4=All I Need
TTITLE5=Right Heart at the Wrong Time
TTITLE6=Go to Her
TTITLE7=I Hear Love Knocking
EXTD=
EXTT0=
EXTT1=
EXTT2=
EXTT3=
EXTT4=
EXTT5=
EXTT6=
EXTT7=
PLAYORDER=
